<?xml version="1.0" encoding="utf-8"?>
<!-- Generator: Adobe Illustrator 20.0.0, SVG Export Plug-In . SVG Version: 6.00 Build 0)  -->
<svg version="1.1" id="Layer_1" xmlns="http://www.w3.org/2000/svg" xmlns:xlink="http://www.w3.org/1999/xlink" x="0px" y="0px"
	 viewBox="0 0 841.9 595.3" style="enable-background:new 0 0 841.9 595.3;" xml:space="preserve">
<style type="text/css">
	.st0{opacity:0.4;}
	.st1{fill:none;stroke:#ECEEFF;stroke-miterlimit:10;}
	.st2{fill:none;}
	.st3{fill:#FFFFFF;stroke:#FFFFFF;stroke-miterlimit:10;}
	.st4{font-family:'ArialMT';}
	.st5{font-size:31px;}
	.st6{opacity:0.5;fill:none;stroke:#ECEEFF;stroke-miterlimit:10;}
	.st7{fill:#ECEEFF;}
	.st8{opacity:0.5;fill:#ECEEFF;}
</style>
<g class="st0">
	<g>
		<path class="st1" d="M32.7,320.8c116.5-45.7,227.8-132,348.6-158.3c108.5-23.6,179,38.8,278.5,79.5c45.4,18.5,96.3,41.1,134.4-7"
			/>
		<path class="st1" d="M31,317.3C145.5,272.9,255.9,190.7,374.7,168c110.1-21.1,179,45.6,279,88c48.7,20.6,105.7,37.7,142.9-16.7"/>
		<path class="st1" d="M29.2,313.7c112.4-43.3,221.9-120.9,338.7-140.3c111.7-18.5,179,52.4,279.5,96.4
			c52.1,22.8,115,34.2,151.4-26.3"/>
		<path class="st1" d="M27.5,310.2c110.3-42.1,219-115.2,333.7-131.3c113.3-15.9,178.9,59.3,279.9,105
			c55.4,24.9,124.3,30.9,159.9-35.9"/>
		<path class="st1" d="M25.8,306.6c108.3-40.9,216.1-109.4,328.8-122.3c114.9-13.2,178.8,66.3,280.4,113.4
			c58.7,27.2,133.7,27.4,168.4-45.7"/>
		<path class="st1" d="M24.1,303.1c106.2-39.8,213.2-103.5,323.8-113.2c116.6-10.4,178.8,73.4,280.9,121.9
			c62,29.4,143,24,176.9-55.3"/>
		<path class="st1" d="M22.4,299.5c104.1-38.5,210.3-97.4,318.8-104.3c118.2-7.4,178.7,80.4,281.4,130.3
			c65.3,31.7,152.4,20.6,185.4-65"/>
		<path class="st1" d="M20.6,295.9c102.1-37.4,207.5-91.4,313.9-95.3c119.9-4.4,178.5,87.6,281.9,138.8
			c68.6,34,161.7,17.2,193.9-74.6"/>
		<path class="st1" d="M18.9,292.5c100-36.2,204.6-85.2,308.9-86.3c121.5-1.4,178.4,94.7,282.3,147.2
			c71.9,36.3,171.1,13.7,202.4-84.3"/>
		<path class="st1" d="M17.2,288.9c97.9-34.9,201.7-78.9,304-77.3c123.2,1.9,178.3,101.9,282.8,155.7c75.1,38.7,180.4,10.4,210.9-94
			"/>
		<path class="st1" d="M15.5,285.3c95.9-33.8,198.8-72.5,299-68.3c124.8,5.2,178.1,109.3,283.3,164.1
			c78.3,41.1,189.8,6.9,219.4-103.6"/>
		<path class="st1" d="M13.7,281.9c93.8-32.6,195.9-66.1,294-59.3c126.4,8.6,178,116.3,283.8,172.6c81.6,43.3,199.1,3.5,227.9-113.2
			"/>
	</g>
	<g>
		<path class="st1" d="M16,260.1c136.6,43.6,266.9-77.7,390.9-31.7c56.3,20.9,64.7,49.9,127.6,27.3c46.1-16.5,65.6-46.7,117.7-38.9
			c52.2,7.7,98.2,65.1,152.1,38.5"/>
		<path class="st1" d="M802.3,251.6c-54,22.5-99.9-24.7-151.3-28.9c-47.7-4-69.5,21.6-110.6,37.5c-2,0.7-4.1,1.6-6.3,2.2
			c-60.4,20.9-72.9-5.4-127.2-25.3c-58.4-21.4-117.8-10.9-178.9,3.5c-68.7,15.9-137.5,37.8-208.3,22.8"/>
		<path class="st1" d="M800.3,247.9c-54.1,18.5-100-18.6-150.5-19.4c-45.7-0.6-69.2,23.5-109.8,38.4c-2,0.7-4.1,1.5-6.2,2.1
			c-58,19-74.6-4.4-126.9-23.3c-58-20.9-116.7-15.8-177.2-5.2c-69.1,12.1-136.6,33.2-206.4,26.3"/>
		<path class="st1" d="M798.3,244.2c-54.2,14.4-100-12.7-149.6-9.8c-43.7,2.6-68.8,25.4-108.9,39.4c-2,0.7-4.1,1.4-6.2,2
			C478,293,457.4,272.4,407,254.3c-57.6-20.3-115.5-20.6-175.5-13.7c-69.5,8.2-135.6,28.5-204.4,29.5"/>
		<path class="st1" d="M796.3,240.5c-54.3,10.4-99.9-6.8-148.8-0.2c-41.6,5.7-68.5,27.3-108.1,40.4c-2,0.6-4.1,1.2-6.2,1.9
			C480.1,297.9,455.4,280,407,263c-57.1-19.9-114.4-25.7-173.7-22.2c-69.9,4.1-134.7,23.8-202.4,32.8"/>
		<path class="st1" d="M794.4,236.9c-54.4,6.4-99.9-1.1-148,9.4c-39.6,8.6-68.2,29.3-107.2,41.2c-2,0.6-4.1,1.2-6.2,1.7
			c-50.7,13.8-79.5-1.5-125.9-17.5c-56.7-19.4-113.3-30.7-172-30.9c-70.3-0.1-133.7,19.1-200.5,36.1"/>
		<path class="st1" d="M792.4,233.2c-54.5,2.3-99.9,4.4-147.2,18.9c-37.6,11.5-67.9,31.1-106.4,42.2c-2,0.6-4.1,1.1-6.2,1.6
			c-48.2,12.2-81.1-0.5-125.6-15.6c-56.3-18.9-112.1-35.8-170.3-39.4c-70.7-4.3-132.8,14.4-198.5,39.3"/>
		<path class="st1" d="M790.4,229.5c-54.6-1.7-100,9.9-146.4,28.5c-35.6,14.3-67.6,33.1-105.5,43.1c-2,0.5-4.1,1-6.1,1.5
			c-45.7,10.5-82.8,0.5-125.2-13.6c-55.9-18.4-111-41-168.6-48c-71.1-8.6-131.8,9.8-196.6,42.6"/>
		<path id="SVGID_x5F_1_x5F_" class="st2" d="M788.4,225.9c-95.2-10-162.5,60.8-250.3,82.1c-105.1,25.6-197.3-48.7-297.9-66.8
			c-71.5-13-130.9,5.1-194.6,45.8"/>
		<text>		<textPath  xlink:href="#SVGID_x5F_1_x5F_" startOffset="44.2234%">
		</textPath>
</text>
	</g>
	<g>
		<path class="st1" d="M799.8,267.7c-50.4,8.4-100.9-16.1-152-10.4c-55.8,6.2-107.7,38.3-163.6,42.9c-92,7.4-154.5-95-246.9-105
			c-74.4-8-148.1,45.6-223.1,33.3"/>
		<path class="st1" d="M14.6,229.9c57.9,8.2,114.6-17,171.7-25.3c17.3-2.5,34.4-3.6,51.6-1.7c45.5,4.9,84,29.9,122.9,53
			c39.8,23.7,79.1,45.7,125.6,43c7.8-0.5,15.5-1.4,23.1-2.6c47.9-7.4,92.2-28.8,140.7-35.4c3.6-0.5,7.3-0.9,10.9-1.1
			c46.6-3.1,94.6,12.3,140,10.1"/>
		<path class="st1" d="M14.8,231.4c58.1,6.9,114.8-14,171.9-20.3c17.3-1.9,34.5-2.6,51.7-0.6c45.4,4.9,84.2,27.3,123.8,47.9
			c40.4,21,80,40.8,126.4,39c7.8-0.2,15.5-1,23.1-1.9c48.6-5.3,92-23.3,140.9-31.5c3.6-0.6,7.3-1.1,10.9-1.5
			c45.9-4.7,95,5.8,139,9.1"/>
		<path class="st1" d="M15.1,232.7c58.4,5.7,114.9-10.9,172.2-15.1c17.4-1.2,34.6-1.5,51.7,0.4c45.3,4.9,84.4,24.8,124.7,43
			c41,18.4,80.9,35.7,127.1,34.9c7.8-0.1,15.5-0.5,23.1-1c49.2-3.1,91.8-17.9,141.2-27.4c3.6-0.7,7.2-1.2,10.9-1.7
			c45.2-6.2,95.4-0.7,138.1,8.2"/>
		<path class="st1" d="M15.4,234.1c58.7,4.4,115.1-7.8,172.4-9.9c17.5-0.5,34.7-0.5,51.8,1.4c45.3,5.1,84.5,22.4,125.6,37.9
			c41.6,15.8,81.7,30.6,127.8,31c7.7,0.1,15.5-0.1,23.1-0.2c49.9-0.9,91.5-12.5,141.4-23.5c3.6-0.7,7.2-1.5,10.8-2.1
			c44.5-7.7,95.8-7.3,137.1,7.2"/>
		<path class="st1" d="M15.7,235.6c58.9,3.1,115.2-4.9,172.6-4.7c17.6,0.1,34.8,0.5,51.8,2.5c45.2,5.1,84.7,19.9,126.5,33
			c42.2,13.2,82.6,25.6,128.6,27c7.7,0.2,15.4,0.2,23.2,0.5c50.5,1.4,91.3-6.9,141.6-19.4c3.6-0.9,7.1-1.7,10.8-2.5
			c43.7-9.1,96.2-13.8,136.1,6.2"/>
		<path class="st1" d="M16,236.9c59.2,1.9,115.4-1.9,172.8,0.5c17.6,0.7,34.9,1.6,51.9,3.5c45.2,5.1,84.8,17.4,127.4,27.9
			c42.8,10.6,83.5,20.5,129.3,23c7.7,0.4,15.4,0.7,23.2,1.2c51.2,3.7,91.1-1.5,141.8-15.3c3.5-1,7.1-1.9,10.7-2.8
			c43-10.5,96.6-20.4,135.1,5.2"/>
		<path class="st1" d="M16.2,238.3c59.4,0.6,115.5,1.2,173,5.7c17.7,1.4,34.9,2.6,51.9,4.6c45.1,5.1,84.9,14.9,128.4,23
			c43.3,8,84.3,15.6,130.1,19c7.7,0.6,15.4,1.1,23.2,2.1c51.8,5.9,90.9,4.1,142.1-11.4c3.5-1.1,7.1-2.1,10.7-3.1
			c42.3-12,97-26.9,134.2,4.2"/>
		<path class="st1" d="M16.5,239.8c59.7-0.6,115.7,4.3,173.2,10.9c17.8,2.1,35,3.6,52,5.6c45,5.2,85.1,12.5,129.3,18
			c43.9,5.4,85.2,10.5,130.8,15.1c7.7,0.7,15.4,1.6,23.2,2.8c52.5,8.3,90.7,9.6,142.3-7.3c3.5-1.1,7-2.3,10.7-3.5
			c41.6-13.3,97.4-33.5,133.2,3.2"/>
		<path class="st1" d="M16.8,241.1c60-1.9,115.8,7.4,173.5,16.1c17.9,2.7,35.1,4.7,52,6.5c45,5.2,85.2,10.1,130.2,13
			c44.5,2.8,86,5.4,131.5,11c7.7,1,15.4,2.1,23.2,3.6c53.1,10.6,90.5,15.2,142.5-3.3c3.5-1.2,7-2.5,10.6-3.8
			c40.9-14.7,97.8-40,132.2,2.2"/>
		<path class="st1" d="M17.1,242.5c60.2-3.1,116,10.6,173.7,21.2c18,3.5,35.2,5.7,52.1,7.7c44.9,5.2,85.4,7.7,131.1,8
			c45.1,0.4,86.9,0.4,132.3,7c7.7,1.1,15.4,2.5,23.2,4.3c53.7,13,90.3,20.7,142.8,0.7c3.5-1.4,7-2.7,10.6-4.2
			c40.2-16.1,98.2-46.7,131.3,1.2"/>
		<path class="st1" d="M17.4,244c60.5-4.3,116.1,13.7,173.9,26.4c18,4.1,35.3,6.7,52.1,8.6c44.8,5.2,85.5,5.2,132,3
			c45.6-2.2,87.8-4.7,133,3c7.7,1.4,15.4,3,23.2,5.2c54.4,15.4,90.1,26.3,143,4.8c3.4-1.4,6.9-3,10.5-4.4
			c39.5-17.4,98.6-53.2,130.3,0.2"/>
		<path class="st1" d="M17.7,245.3c60.8-5.6,116.3,16.7,174.1,31.6c18.1,4.7,35.4,7.8,52.2,9.8c44.8,5.2,85.7,2.8,132.9-2
			c46.2-4.7,88.6-9.6,133.8-1c7.7,1.5,15.4,3.3,23.2,5.9c55,17.8,89.9,32,143.2,8.8c3.4-1.5,6.9-3.1,10.5-4.8
			c38.8-18.8,99-59.8,129.3-0.7"/>
		<path class="st1" d="M17.9,246.7c61-6.9,116.4,19.8,174.3,36.8c18.2,5.4,35.4,8.8,52.2,10.7c44.7,5.3,85.8,0.5,133.8-7
			c46.8-7.2,89.5-14.7,134.5-4.9c7.7,1.6,15.4,3.8,23.2,6.7c55.6,20.3,89.7,37.7,143.4,12.8c3.4-1.6,6.9-3.3,10.4-5.2
			c38.2-20,99.4-66.3,128.3-1.7"/>
		<path class="st1" d="M18.2,248.2c61.3-8.2,116.6,22.8,174.5,42c66.9,22.1,120,13.6,187-0.2c55.5-11.5,104.9-23.2,158.4-1.5
			c59.7,24.2,93.6,45.7,154.1,11.4c37.5-21.4,99.8-72.9,127.4-2.7"/>
	</g>
</g>
<rect x="144.3" y="140.8" class="st2" width="553.3" height="175.4"/>
<text transform="matrix(1 0 0 1 327.9038 271.9023)" class="st3 st4 st5">Human Voice</text>
<g>
	<path class="st1" d="M146.4,295.1c-13.6,6.6-29.6,8.6-45.5,4.5c-15.8-4.2-28.8-13.8-37.4-26.3c7.3-3.6,15.3-5.8,23.6-6.4
		c0.5,0,1-0.1,1.6-0.1c0.2,0,0.4,0,0.7,0c0.3,0,0.6,0,0.9,0c0.3,0,0.6,0,0.9,0c0,0,0,0,0,0c0.5,0,0.9,0,1.3,0c0,0,0,0,0.1,0
		c0.4,0,0.8,0,1.2,0c0.1,0,0.1,0,0.2,0c0.4,0,0.8,0,1.3,0c0,0,0.1,0,0.1,0c0.4,0,0.8,0,1.3,0.1c0.4,0,0.9,0.1,1.3,0.1
		c0.1,0,0.1,0,0.2,0c0.4,0,0.8,0.1,1.1,0.1c0.3,0,0.7,0.1,1,0.1c0.2,0,0.4,0.1,0.6,0.1c0.3,0,0.6,0.1,0.9,0.1
		c2.4,0.4,4.8,0.8,7.2,1.5c2.4,0.6,4.7,1.4,7,2.3c0.3,0.1,0.6,0.2,0.9,0.3c0.2,0.1,0.4,0.2,0.6,0.2c0.3,0.1,0.6,0.3,0.9,0.4
		c0.4,0.1,0.7,0.3,1,0.5c0.1,0,0.1,0,0.1,0.1c0.4,0.2,0.8,0.4,1.2,0.6c0.4,0.2,0.8,0.4,1.1,0.6c0,0,0,0,0.1,0
		c0.4,0.2,0.8,0.4,1.1,0.6c0.1,0,0.1,0.1,0.2,0.1c0.4,0.2,0.7,0.4,1.1,0.6c0,0,0,0,0,0c0.4,0.2,0.8,0.4,1.2,0.7c0,0,0,0,0,0
		c0.2,0.1,0.5,0.3,0.8,0.5c0.3,0.2,0.5,0.3,0.8,0.5c0.2,0.1,0.4,0.2,0.6,0.4c0.4,0.3,0.9,0.6,1.3,0.9
		C135.9,282.5,141.8,288.4,146.4,295.1z"/>
	<path class="st1" d="M116,271.1l2.2-8.3L104,259l-2.2,8.3c-4.9-0.7-9.8-0.9-14.7-0.5c4.8,6.7,11.2,11.5,18.8,13.5
		c7.6,2,15.5,1,23-2.5C125,275.1,120.6,272.9,116,271.1z"/>
	
		<rect x="107.9" y="256" transform="matrix(0.2545 -0.9671 0.9671 0.2545 -172.32 303.1607)" class="st6" width="5.1" height="14.6"/>
	<path class="st1" d="M98.3,196c0.9-3.5,4.5-5.6,8.1-4.7l43.2,11.4c3.5,0.9,5.6,4.5,4.7,8.1l-13.5,51.2c-0.9,3.5-4.5,5.6-8.1,4.7
		l-43.2-11.4c-3.5-0.9-5.6-4.5-4.7-8.1L98.3,196z"/>
	<path class="st1" d="M127.6,246.1c-2.6,3.7-8.7,2.6-13,1.5c-4.3-1.1-9.7-3.1-10.6-7.6"/>
	<g>
		<path class="st1" d="M152.7,249c-1,3.8-4.8,6-8.5,5.1c-0.4-0.1-0.9-0.3-1.2-0.5l3.5-13.4c0.4,0,0.9,0.1,1.3,0.2
			C151.5,241.4,153.6,245.2,152.7,249z"/>
		<path class="st1" d="M90.5,225.5L87,238.9c-0.4,0-0.9-0.1-1.3-0.2c-3.7-1-5.9-4.8-4.9-8.6c1-3.8,4.8-6.1,8.5-5.1
			C89.7,225.1,90.1,225.3,90.5,225.5z"/>
	</g>
	<g>
		
			<ellipse transform="matrix(0.2545 -0.9671 0.9671 0.2545 -144.6841 280.6407)" class="st1" cx="109.7" cy="234.2" rx="3.4" ry="2.2"/>
		
			<ellipse transform="matrix(0.2545 -0.9671 0.9671 0.2545 -136.9065 299.0637)" class="st1" cx="125.5" cy="238.3" rx="3.4" ry="2.2"/>
	</g>
	<path class="st7" d="M155.2,202.7c0.9-16.2-59.8-43.1-56.7-12.1c-4.1,5.1-8.1,19.4-9.5,41.7c0,0,14.5-17.9,15.2-35.3
		c12.5,10.7,38.2,14.3,43.6,13.6c-6.8,15.4-3.3,36.3-3.3,36.3C156.6,221.9,159.1,205.6,155.2,202.7z"/>
	
		<rect x="113.6" y="233.9" transform="matrix(0.2545 -0.9671 0.9671 0.2545 -140.0103 290.0788)" class="st7" width="9.1" height="3.8"/>
</g>
<g>
	<path class="st1" d="M716.4,372.5c-9.7,5.2-20.9,8.2-32.9,8.2c-12,0-23.3-3-32.9-8.2l8.5-15.5l9.9-4l28.7-0.1l9.4,3.7L716.4,372.5z
		"/>
	<g>
		<path class="st8" d="M683.5,362.5c0,0-8.6,5.8-13.3-1.7c-2.9-4.6-1.3-7.8-1.3-7.8L683.5,362.5z"/>
		<path class="st8" d="M683.3,362.5c0,0,8.6,5.8,13.3-1.7c2.9-4.6,1.3-7.8,1.3-7.8L683.3,362.5z"/>
	</g>
	<path class="st1" d="M697.6,352.6c0,0-13,9.9-13.9,9.9c-0.9,0-14.8-9.1-14.8-9.1c2.4-0.6,4.8-1,7.2-1.3l-0.2-7.9l14.5-0.4l0.2,7.9
		C693.1,351.9,695.4,352.2,697.6,352.6z"/>
	<rect x="676.2" y="343.9" class="st6" width="14.5" height="4.7"/>
	<g>
		<ellipse class="st1" cx="653.6" cy="323.7" rx="7" ry="6.5"/>
		<ellipse class="st1" cx="713.4" cy="323.7" rx="7" ry="6.5"/>
	</g>
	<rect x="681.9" y="317.2" class="st1" width="3.1" height="6.5"/>
	<path class="st7" d="M711,339.7L711,339.7c0,0-0.9-4.8-2.6-11.6c-1.8-7.2-3.2-16.6-1.2-24.4c0,0-7.5,1.2-9.4-10
		c-15.8,18.6-37.8,10-37.8,10c2,8,0.6,17.4-1.3,24.6c-1.7,6.6-2.6,11.4-2.6,11.4h0c-0.9-3.4-4.4-36-4.4-36c0-0.1,0-0.1,0-0.2
		c0.1-13.7,6.3-25.7,15.6-32.2c0-0.2,0.1-0.4,0.1-0.5c4.7-3.2,10.1-5.1,15.9-5.1c5.8,0,11.3,1.9,16,5.1c0,0.2,0.1,0.3,0.1,0.5
		c9.3,6.5,15.6,18.5,15.6,32.2C715.2,303.5,711.9,336.3,711,339.7z"/>
	<path class="st1" d="M694.6,325.5c-1.5,3.6-7.1,4-11.1,4c-4,0-9.3-0.4-11.1-4"/>
	<path class="st1" d="M712.3,318.2c0,0.1,0,0.2,0,0.3v-0.7C712.3,318,712.3,318.1,712.3,318.2z"/>
	<g>
		<path class="st1" d="M670.2,320.5c0-1.8,1.6-3.3,3.6-3.3s3.6,1.5,3.6,3.3"/>
		<path class="st1" d="M690.4,320.5c0-1.8,1.6-3.3,3.6-3.3c2,0,3.6,1.5,3.6,3.3"/>
	</g>
	<path class="st1" d="M712.3,289.2v29.4c-0.2,12.2-9.2,22.3-21.3,25.4c-2.4,0.6-4.9,0.9-7.5,0.9c-2.6,0-5.1-0.3-7.4-0.9
		c-9.4-2.3-16.9-8.9-19.9-17.4c-0.9-2.6-1.4-5.4-1.4-8.3v-29c0-3.4,2.9-6.1,6.6-6.1h44.4C709.3,283.1,712.3,285.9,712.3,289.2z"/>
</g>
<g>
	<path class="st1" d="M474.4,198.5c-8.9,5.2-19.2,8.2-30.3,8.2c-11,0-21.4-3-30.3-8.2l16.9-19.4l26.4-0.1L474.4,198.5z"/>
	<path class="st1" d="M457.1,179.1c0,0-12.2,9.5-13,9.5c-0.8,0-13.4-9.4-13.4-9.4c2.2-0.5,4.4-0.9,6.7-1.1v-7.9h13.4v7.9
		C452.9,178.3,455,178.6,457.1,179.1z"/>
	<rect x="437.4" y="170.1" class="st6" width="13.4" height="4.7"/>
	<g>
		<circle class="st7" cx="416.6" cy="150" r="6.5"/>
		<circle class="st7" cx="471.6" cy="150" r="6.5"/>
	</g>
	<path class="st1" d="M470.6,115.7v29.2c-0.1,12.1-8.4,22.2-19.6,25.2c-2.2,0.6-4.5,0.9-6.9,0.9c-2.4,0-4.7-0.3-6.8-0.9
		c-8.6-2.3-15.5-8.9-18.3-17.3c-0.9-2.6-1.3-5.4-1.3-8.3v-28.9c0-3.3,2.7-6,6-6h40.9C467.9,109.6,470.6,112.3,470.6,115.7z"/>
	<path class="st1" d="M454.8,152.9c-1.4,3.6-6.6,4-10.4,4c-3.8,0-8.7-0.4-10.4-4"/>
	<polygon class="st1" points="446.2,150.5 442.7,150.5 444.5,142.2 	"/>
	<path class="st1" d="M470.6,144.6c0,0.1,0,0.2,0,0.3v-0.7C470.6,144.3,470.6,144.4,470.6,144.6z"/>
	<path class="st7" d="M416.6,150.5c0,0,30.4-8.2,43.4-33.7c0,0-0.9,6,2.4,10.2c0,0-1.1-5,0-7.3c0,0,2.9,16.6,7.7,29.5
		c0,0,6.1-26.3,0.4-40.7l1.1-3.1l-5.8,1.1l-2.6-7.5l-0.6,6.3c0,0-6.4-10.7-20.6-10.2C427.8,95.6,409,105.9,416.6,150.5z"/>
	<g>
		<g>
			<path class="st7" d="M431.7,146.8c0,0,0,0,0-0.1c0-0.1,0-0.2,0-0.3c0-0.3,0.1-0.8,0.3-1.3c0.2-0.5,0.6-1,1.2-1.4
				c0.6-0.4,1.3-0.6,2.1-0.7c0.3,0,0.8,0.1,1.1,0.2c0.3,0.1,0.7,0.3,1,0.5c0.6,0.4,1,0.9,1.2,1.4c0.2,0.5,0.3,0.9,0.3,1.3
				c0,0.3,0,0.5,0,0.5h-0.3c0,0,0-0.2-0.1-0.4c-0.1-0.3-0.2-0.6-0.4-1c-0.2-0.4-0.6-0.7-1.1-1c-0.2-0.1-0.5-0.2-0.7-0.3
				c-0.3-0.1-0.5-0.1-0.8-0.1c-0.6,0-1.1,0.2-1.6,0.4c-0.5,0.3-0.8,0.6-1.1,1c-0.2,0.4-0.4,0.7-0.4,1c-0.1,0.3-0.1,0.4-0.1,0.4
				L431.7,146.8z"/>
		</g>
		<g>
			<path class="st7" d="M450.3,146.8c0,0,0,0,0-0.1c0-0.1,0-0.2,0-0.3c0-0.3,0.1-0.8,0.3-1.3c0.2-0.5,0.6-1,1.2-1.4
				c0.6-0.4,1.3-0.6,2.1-0.7c0.3,0,0.8,0.1,1.1,0.2c0.3,0.1,0.7,0.3,1,0.5c0.6,0.4,1,0.9,1.2,1.4c0.2,0.5,0.3,0.9,0.3,1.3
				c0,0.3,0,0.5,0,0.5h-0.3c0,0,0-0.2-0.1-0.4c-0.1-0.3-0.2-0.6-0.4-1c-0.2-0.4-0.6-0.7-1.1-1c-0.2-0.1-0.5-0.2-0.7-0.3
				c-0.3-0.1-0.5-0.1-0.8-0.1c-0.6,0-1.1,0.2-1.6,0.4c-0.5,0.3-0.8,0.6-1.1,1c-0.2,0.4-0.4,0.7-0.4,1c-0.1,0.3-0.1,0.4-0.1,0.4
				L450.3,146.8z"/>
		</g>
	</g>
</g>
</svg>
