<?xml version="1.0" encoding="utf-8"?>
<!-- Generator: Adobe Illustrator 20.0.0, SVG Export Plug-In . SVG Version: 6.00 Build 0)  -->
<svg version="1.1" id="Layer_1" xmlns="http://www.w3.org/2000/svg" xmlns:xlink="http://www.w3.org/1999/xlink" x="0px" y="0px"
	 viewBox="0 0 841.9 595.3" style="enable-background:new 0 0 841.9 595.3;" xml:space="preserve">
<style type="text/css">
	.st0{fill:none;stroke:#CE4B17;stroke-miterlimit:10;}
	.st1{fill:none;}
	.st2{fill:#FFFFFF;stroke:#FFFFFF;stroke-miterlimit:10;}
	.st3{font-family:'ArialMT';}
	.st4{font-size:31px;}
	.st5{fill:#CE4B17;}
	.st6{fill-rule:evenodd;clip-rule:evenodd;fill:#CE4B17;}
	.st7{fill-rule:evenodd;clip-rule:evenodd;fill:none;stroke:#CE4B17;stroke-miterlimit:10;}
</style>
<g>
	<path class="st0" d="M30.5,291.3c107.1-118.5,194.5,75.2,311.8,27.7c87.8-35.6,132.1-109.6,228.2-56.7
		c57.2,31.4,119.3,67.4,181.2,23"/>
	<path class="st0" d="M32.2,292.5c71.7-78.9,139.4-24,208.9,12.2c33.4,17.5,66.9,29.6,106.1,14.6c34.3-13.2,61.6-33.4,88.4-48.9
		c15.3-8.8,30.1-15.5,46.6-20.5c27-8.3,55.9-9,92.7,10.9c34.7,18.8,70.3,41,108,44.3c23.5,2.1,47.2-3.2,70.9-19.1"/>
	<path class="st0" d="M33.9,293.6c70.9-77.7,143-30.9,212.2,7.5c33.5,18.6,65.7,33,106.2,18.3c34.5-12.5,61.5-33.4,88.6-48.6
		c15.1-8.5,29.6-13.9,46.8-19.4c27-8.7,55.3-11.7,92,7.8c34.4,18.4,68.5,41.6,106.1,45.3c23.4,2.2,46.9-3.2,70.5-17.9"/>
	<path class="st0" d="M35.6,294.8c70.1-76.5,146.6-37.6,215.4,2.8c33.5,19.7,64.4,36.4,106.2,22.1c34.7-11.9,61.4-33.4,88.7-48.2
		c15-8.1,29.1-12.4,46.9-18.4c26.9-9,54.8-14.4,91.2,4.7c34,17.9,66.7,42.3,104.3,46.3c23.3,2.4,46.6-3.2,70-16.7"/>
	<path class="st0" d="M37.2,295.9c69.3-75.3,150.1-44.3,218.6-1.9c33.6,20.8,63.1,39.8,106.2,25.9c34.9-11.2,61.4-33.4,88.9-47.9
		c14.8-7.8,28.6-10.9,47-17.3c26.9-9.4,54.2-17.1,90.4,1.5c33.6,17.4,64.9,42.9,102.4,47.2c23.1,2.6,46.3-3.2,69.5-15.5"/>
	<path class="st0" d="M38.9,297.1c68.5-74,153.7-51,221.8-6.5c33.6,21.9,61.8,43.1,106.3,29.6c35-10.6,61.3-33.4,89-47.6
		c14.7-7.5,28.1-9.3,47.2-16.2c26.9-9.7,53.6-19.8,89.7-1.6c33.2,17,63.1,43.6,100.6,48.2c23,2.8,46-3.1,69-14.2"/>
	<path class="st0" d="M40.6,298.3c67.7-72.8,157.2-57.7,225-11.2c33.7,23.1,60.5,46.4,106.3,33.4c35.2-10,61.2-33.4,89.2-47.3
		c14.5-7.2,27.7-7.8,47.3-15.2c26.8-10.1,53.1-22.6,88.9-4.7c32.8,16.4,61.2,44.2,98.7,49.2c22.9,2.9,45.7-3.1,68.6-13"/>
	<path class="st0" d="M42.3,299.4c66.9-71.6,160.7-64.4,228.3-15.9c33.7,24.2,59.2,49.8,106.3,37.1c35.3-9.5,61.1-33.4,89.3-47
		c14.3-6.9,27.2-6.2,47.5-14.1c26.8-10.4,52.6-25.3,88.1-7.8c32.5,16,59.4,44.9,96.9,50.1c22.8,3.1,45.3-3.1,68.1-11.8"/>
	<path class="st0" d="M43.9,300.6c66.1-70.4,164.3-71,231.5-20.6c33.8,25.3,57.9,53.1,106.4,40.9c35.5-8.9,61-33.4,89.5-46.6
		c14.1-6.5,26.7-4.6,47.6-13c26.7-10.7,52-28,87.4-10.9c32.1,15.5,57.6,45.6,95,51.1c22.6,3.3,45-3,67.6-10.6"/>
	<path class="st0" d="M45.6,301.7c65.3-69.1,167.8-77.7,234.7-25.2c33.8,26.5,56.6,56.3,106.4,44.7c35.6-8.3,60.9-33.5,89.6-46.3
		c14-6.2,26.2-3.1,47.8-11.9c26.7-11,51.4-30.7,86.6-14.1c31.7,15,55.8,46.3,93.2,52c22.5,3.5,44.7-3,67.1-9.3"/>
	<path class="st0" d="M47.3,302.9c64.6-67.9,171.3-84.3,237.9-29.9c33.8,27.6,55.2,59.6,106.4,48.4c35.7-7.8,60.7-33.5,89.8-46
		c13.8-5.9,25.7-1.5,47.9-10.9c26.7-11.3,50.9-33.4,85.8-17.2c31.3,14.5,54,46.9,91.3,53c22.4,3.6,44.4-3,66.7-8.1"/>
	<path class="st0" d="M48.9,304c63.8-66.7,174.8-91,241.1-34.6c33.9,28.8,53.9,62.8,106.5,52.2c35.9-7.3,60.6-33.5,90-45.7
		c13.6-5.6,25.3,0.1,48-9.8c26.7-11.6,50.3-36.1,85.1-20.3c30.9,14.1,52.1,47.6,89.5,54c22.3,3.8,44.1-3,66.2-6.9"/>
	<path class="st0" d="M50.6,305.2c63-65.5,178.3-97.6,244.4-39.3c33.9,29.9,52.6,66.1,106.5,55.9c36-6.8,60.5-33.6,90.1-45.4
		c13.4-5.3,24.8,1.7,48.2-8.7c26.7-11.9,49.8-38.8,84.3-23.4c30.5,13.6,50.3,48.2,87.6,54.9c22.1,4,43.8-2.9,65.7-5.7"/>
	<path class="st0" d="M52.3,306.3c62.2-64.2,181.8-104.2,247.6-43.9c33.9,31.1,51.2,69.3,106.5,59.7c36.1-6.3,60.4-33.7,90.3-45.1
		c13.2-5,24.3,3.3,48.3-7.7c26.6-12.2,49.2-41.5,83.5-26.6c30.1,13.1,48.5,48.9,85.8,55.9c22,4.1,43.4-2.9,65.2-4.4"/>
	<path class="st0" d="M54,307.5c61.4-63,185.3-110.9,250.8-48.6c34,32.3,49.9,72.5,106.6,63.5c36.3-5.8,60.2-33.7,90.4-44.7
		c13-4.8,23.9,4.9,48.5-6.6c26.6-12.5,48.6-44.2,82.8-29.7c29.7,12.7,46.7,49.4,83.9,56.9c21.9,4.3,43.1-2.9,64.8-3.2"/>
	<path class="st0" d="M55.6,308.6c60.6-61.8,188.8-117.5,254-53.3c34,33.4,48.6,75.6,106.6,67.2c36.4-5.3,60.1-33.8,90.6-44.4
		c12.9-4.5,23.4,6.5,48.6-5.5c26.6-12.7,48.1-46.9,82-32.8c29.4,12.2,44.9,50.1,82.1,57.8c21.8,4.4,42.8-2.9,64.3-2"/>
	<path class="st0" d="M57.3,309.8c59.8-60.6,192.2-124.1,257.2-58c34,34.6,47.2,78.8,106.6,71c36.5-4.8,60-33.9,90.7-44.1
		c12.7-4.2,23,8.1,48.8-4.4c26.6-13,47.5-49.6,81.2-35.9c29,11.7,43.1,50.8,80.2,58.8c21.6,4.6,42.5-2.8,63.8-0.8"/>
	<path class="st0" d="M59,311c59-59.4,195.7-130.7,260.5-62.6c34,35.8,45.9,81.9,106.7,74.7c36.6-4.4,59.8-34,90.9-43.8
		c12.5-3.9,22.5,9.8,48.9-3.4c26.6-13.2,46.9-52.3,80.5-39.1c28.6,11.3,41.2,51.4,78.4,59.8c21.5,4.8,42.2-2.8,63.4,0.5"/>
	<path class="st0" d="M60.7,312.1c58.2-58.1,199.2-137.3,263.7-67.3c34,36.9,44.6,85.1,106.7,78.5c36.8-3.9,59.7-34.1,91.1-43.5
		c12.3-3.7,22.1,11.4,49-2.3c26.6-13.5,46.3-54.9,79.7-42.2c28.2,10.9,39.4,52.1,76.5,60.7c21.4,4.9,41.9-2.8,62.9,1.7"/>
	<path class="st0" d="M62.3,313.3c57.5-56.9,202.5-143.8,266.9-72c34,38.2,43.3,88.2,106.7,82.2c36.9-3.4,59.6-34.3,91.2-43.1
		c12.1-3.4,21.6,13,49.2-1.2c26.6-13.8,45.8-57.6,78.9-45.3c27.8,10.4,37.6,52.7,74.7,61.7c21.3,5.1,41.6-2.7,62.4,2.9"/>
	<path class="st0" d="M64,314.4c56.7-55.7,206-150.5,270.1-76.7c34,39.3,41.9,91.2,106.8,86c37.1-3,59.4-34.4,91.4-42.8
		c11.9-3.1,21.2,14.7,49.3-0.2c26.6-14,45.2-60.3,78.2-48.4c27.4,9.9,35.8,53.4,72.8,62.7c21.1,5.3,41.2-2.7,61.9,4.1"/>
	<path class="st0" d="M65.7,315.6c55.9-54.5,209.5-157.2,273.3-81.4c34.1,40.5,40.6,94.3,106.8,89.8c37.2-2.6,59.3-34.6,91.5-42.5
		c11.7-2.9,20.7,16.3,49.5,0.9c26.6-14.3,44.6-63,77.4-51.6c27,9.5,34,54,71,63.6c21,5.5,40.9-2.7,61.5,5.4"/>
</g>
<g>
	<path class="st0" d="M30.9,275.3c112.6,10.8,194.5-62.2,299.7-85.8c82.2-18.4,152.3,34.1,228.6,65c66,26.8,137.3,43.6,206.3,28"/>
	<path class="st0" d="M30.7,279c77.8,3.2,142.9-36.3,211.2-61.2c30-10.9,58.9-17.9,90.1-21c8.5-0.9,17-1,25.4-0.8
		c63.5,2.2,123.6,36.8,185.1,58.9c6.8,2.4,13.6,4.6,20.3,6.6c35.1,10.3,71,16.4,108.3,21c33.3,4.1,66.7,6.8,99.7,1.3"/>
	<path class="st0" d="M30.5,282.6c76.7-1.2,143.2-46.5,212.4-67.5c31.3-9.5,59.6-11.8,90.5-11.1c8.4,0.2,16.8,1,25.2,2.1
		c62.6,7.9,125,41.3,187.2,57.9c6.9,1.8,13.8,3.4,20.6,4.6c35.6,6.5,71,7.3,109.1,11.2c33.7,3.5,67.2,8.9,100.5,5.3"/>
	<path class="st0" d="M30.2,286.3c75.6-5.5,143.6-56.5,213.6-73.8c32.6-8,60.3-5.8,90.8-1.3c8.3,1.2,16.6,3,25.1,4.9
		c61.7,13.6,126.4,45.6,189.3,56.8c7,1.3,14,2.1,20.9,2.6c36,2.7,71.1-1.7,109.9,1.5c34.1,2.9,67.7,11,101.3,9.3"/>
	<path class="st0" d="M30,289.9c74.5-9.9,143.9-66.5,214.9-80.1c33.9-6.5,61,0.2,91.2,8.6c8.2,2.3,16.4,5,24.9,7.7
		c60.8,19.1,127.8,49.9,191.4,55.8c7.2,0.7,14.2,0.8,21.2,0.6c36.4-1.1,71.1-10.8,110.7-8.3c34.4,2.2,68.3,13.1,102.2,13.3"/>
	<path class="st0" d="M29.8,293.5c73.4-14.2,144.3-76.3,216.1-86.4c35.2-4.9,61.7,6.1,91.6,18.5c8,3.3,16.2,7,24.7,10.5
		c59.9,24.5,129.3,54.1,193.5,54.7c7.3,0.1,14.4-0.5,21.5-1.4c36.8-4.9,71.1-19.8,111.5-18.1c34.8,1.6,68.8,15.2,103,17.3"/>
	<path class="st0" d="M29.5,297.2c72.3-18.5,144.6-86.1,217.3-92.7c36.5-3.3,62.4,12.1,92,28.3c7.9,4.4,16,8.9,24.5,13.3
		c59.1,29.8,130.7,58.3,195.6,53.7c7.4-0.5,14.6-1.8,21.7-3.4c37.2-8.7,71.2-28.9,112.3-27.8c35.2,1,69.3,17.3,103.9,21.3"/>
	<path class="st0" d="M29.3,300.8c71.2-22.9,145-95.8,218.5-99c37.8-1.7,63.1,17.9,92.3,38.2c7.8,5.4,15.8,10.9,24.4,16.1
		c58.3,35.1,132.1,62.4,197.7,52.6c7.5-1.1,14.9-3,22-5.4c37.7-12.5,71.2-37.9,113.1-37.6c35.6,0.4,69.9,19.4,104.7,25.3"/>
	<path class="st0" d="M29.1,304.4c70.1-27.2,145.3-105.4,219.8-105.3c49.4,0.1,76,38.2,116.9,66.9c57.5,40.3,133.5,66.6,199.8,51.6
		c48.1-10.9,85.5-54.3,136.3-54.7c35.9-0.3,70.4,21.5,105.5,29.4"/>
</g>
<g>
	<path class="st0" d="M24.5,275.5c21.9-14.7,35.5-40.8,59.8-53.1c59.8-30.3,94.3,20,127.6,66.7c44.5,62.4,108.7,171.9,186.2,94.5
		c51.6-51.5,83.5-185,173.8-172.8c75.2,10.2,98.7,98.8,185.9,78.7"/>
	<path class="st0" d="M24.8,277.6c21.6-14.6,35.4-40.1,59.4-52.3c58.7-29.9,93.4,17.4,127.2,61.3c36.7,47.7,86.1,125.2,144.2,114
		c13.7-2.6,27.6-10.1,42.3-23.8c52.1-48.6,85.3-174.1,174.9-163.6c7.1,0.9,13.8,2.4,20.1,4.4c59.2,19.4,87.3,85.8,164.4,70.3"/>
	<path class="st0" d="M25.1,279.7c21.4-14.5,35.4-39.3,59.1-51.4c57.6-29.4,92.4,14.9,126.7,56c37.4,44.8,86.9,118.1,144.6,108.1
		c13.6-2.4,27.5-9.5,42.1-22.1c52.8-45.7,87.2-163.4,175.9-154.4c7,0.7,13.6,2.1,19.9,3.9c58.6,17.4,87.9,79.8,163.2,66.9"/>
	<path class="st0" d="M25.3,281.7c21.1-14.5,35.3-38.6,58.7-50.6c56.5-28.9,91.5,12.3,126.2,50.7c38,42,87.8,111.1,145,102.2
		c13.6-2.1,27.3-8.8,41.9-20.5c53.4-42.8,89-152.5,177-145.2c6.9,0.6,13.5,1.8,19.7,3.4c57.9,15.4,88.5,73.7,162.1,63.4"/>
	<path class="st0" d="M25.6,283.8C46.4,269.4,60.8,246,84,234c55.4-28.5,90.6,9.7,125.8,45.3c38.7,39.1,88.7,104.1,145.4,96.3
		c13.6-1.9,27.2-8.1,41.7-18.8c54.2-39.9,90.8-141.7,178.1-136c6.8,0.4,13.3,1.5,19.5,2.9c57.2,13.5,89.1,67.7,160.9,60"/>
	<path class="st0" d="M25.9,285.9c20.5-14.3,35.1-37.1,58-48.9c54.2-28,89.7,7.1,125.3,40c39.3,36.3,89.6,97.1,145.8,90.4
		c13.6-1.6,27.1-7.5,41.5-17.2c55-37.1,92.6-130.8,179.1-126.7c6.7,0.3,13.1,1.2,19.3,2.4c56.5,11.6,89.7,61.6,159.7,56.5"/>
	<path class="st0" d="M26.2,287.9c20.3-14.3,35-36.3,57.7-48.1c53.1-27.5,88.8,4.6,124.9,34.7c40,33.4,90.5,90.1,146.3,84.5
		c13.6-1.4,27-6.8,41.3-15.6c55.8-34.2,94.5-120,180.2-117.5c6.6,0.2,13,0.9,19,1.9c55.8,9.6,90.3,55.6,158.5,53.1"/>
	<path class="st0" d="M26.5,290c20-14.2,34.9-35.6,57.3-47.3c52-27.1,88,2,124.4,29.3c40.7,30.6,91.5,83.1,146.7,78.6
		c13.6-1.1,26.9-6.1,41.1-13.9c56.7-31.2,96.3-109.1,181.2-108.3c6.5,0.1,12.8,0.6,18.8,1.4c55.1,7.7,90.9,49.5,157.3,49.6"/>
	<path class="st0" d="M26.8,292c19.7-14.1,34.8-34.8,57-46.5c50.9-26.6,87.1-0.6,123.9,24c41.4,27.7,92.4,76.1,147.1,72.7
		c13.6-0.9,26.8-5.4,40.9-12.3c57.7-28.3,98.1-98.2,182.3-99.1c6.4-0.1,12.6,0.3,18.6,0.9c54.4,5.8,91.5,43.4,156.1,46.1"/>
	<path class="st0" d="M27.1,294.1c19.4-14,34.8-34.1,56.6-45.6c49.7-26.1,86.3-3.2,123.5,18.7c42.2,24.8,93.3,69.2,147.5,66.7
		c13.6-0.6,26.8-4.7,40.8-10.7c58.8-25.3,99.9-87.3,183.4-89.9c6.3-0.2,12.4,0,18.4,0.4c53.6,3.9,92.1,37.4,155,42.7"/>
	<path class="st0" d="M27.4,296.2c19.2-14,34.7-33.3,56.3-44.8c48.6-25.7,85.5-5.8,123,13.3c42.9,21.9,94.2,62.2,147.9,60.8
		c13.6-0.4,26.8-3.9,40.6-9c59.9-22.2,101.7-76.4,184.4-80.7c6.2-0.3,12.3-0.3,18.2-0.1c52.9,2.1,92.7,31.3,153.8,39.2"/>
	<path class="st0" d="M27.6,298.2c18.9-13.9,34.6-32.6,55.9-44c47.5-25.2,84.7-8.5,122.5,8c43.7,19,95.1,54.3,148.3,54.9
		c13.6,0.2,26.7-3.1,40.4-7.4c61-19,103.5-65.5,185.5-71.5c6.1-0.4,12.1-0.8,17.9-0.6c52.2,1.3,93.3,25.3,152.6,35.8"/>
	<path class="st0" d="M27.9,300.3c18.6-13.8,34.5-31.8,55.6-43.2c46.4-24.8,83.9-11.1,122.1,2.7c44.5,16.1,96,48.4,148.8,49
		c13.6,0.2,26.7-2.3,40.2-5.7c62.2-15.7,105.3-54.5,186.5-62.2c6-0.6,11.9-0.9,17.7-1.1c51.5-1.7,93.9,19.2,151.4,32.3"/>
	<path class="st0" d="M28.2,302.4c18.3-13.7,34.4-31.1,55.2-42.3c45.3-24.3,83.1-13.8,121.6-2.7c45.3,13.1,96.9,41.4,149.2,43.1
		c13.6,0.4,26.7-1.5,40-4.1c63.4-12.3,107.1-43.6,187.6-53c5.9-0.7,11.7-1.2,17.5-1.6c50.8-3.5,94.5,13.2,150.2,28.9"/>
	<path class="st0" d="M28.5,304.4c18.1-13.7,34.3-30.3,54.9-41.5c44.1-23.8,82.3-16.5,121.2-8c46.1,10.1,97.8,34.5,149.6,37.2
		c13.6,0.7,26.7-0.7,39.8-2.5c64.6-8.8,108.9-32.6,188.7-43.8c5.8-0.8,11.6-1.5,17.3-2.1c50-5.4,95.1,7.1,149.1,25.4"/>
	<path class="st0" d="M28.8,306.5c17.8-13.6,34.3-29.6,54.5-40.7c43-23.4,81.6-19.3,120.7-13.3c46.9,7.1,98.7,27.6,150,31.3
		c13.6,1,26.7,0.2,39.6-0.8c65.8-5.2,110.7-21.6,189.7-34.6c5.7-0.9,11.4-1.8,17.1-2.6c49.3-7.2,95.7,1.1,147.9,22"/>
	<path class="st0" d="M29.1,308.6c17.5-13.5,34.2-28.8,54.2-39.8c41.9-22.9,80.8-22,120.2-18.7c47.7,4,99.7,20.7,150.4,25.4
		c13.6,1.2,26.7-0.4,39.4,0.8c66.7,6.3,112.5-10.6,190.8-25.4c5.6-1.1,11.2-2.1,16.8-3.1c48.6-9,96.3-5,146.7,18.5"/>
	<path class="st0" d="M29.4,310.6c17.2-13.5,34.1-28.1,53.8-39c40.8-22.4,80-24.8,119.8-24c48.4,0.9,100.6,13.8,150.8,19.5
		c13.6,1.5,26.7,0.8,39.2,2.5c67.6,9.1,114.4,0.4,191.9-16.2c5.5-1.2,11.1-2.4,16.6-3.6c47.9-10.8,96.9-11.1,145.5,15"/>
	<path class="st0" d="M29.7,312.7c17-13.4,34-27.4,53.5-38.2c39.7-22,79.2-27.6,119.3-29.4c49.2-2.2,101.5,6.9,151.3,13.5
		c13.6,1.8,26.6,2.9,39,4.1c69.1,6.6,116.2,11.4,192.9-6.9c5.4-1.3,10.9-2.7,16.4-4.1c47.2-12.6,97.5-17.1,144.3,11.6"/>
	<path class="st0" d="M30,314.8c16.7-13.3,33.9-26.6,53.1-37.4c38.5-21.5,78.3-30.4,118.8-34.7c49.9-5.3,102.4,0.1,151.7,7.6
		c13.6,2.1,26.5,3.8,38.9,5.7c70.1,10.7,118,22.4,194,2.3c5.3-1.4,10.7-3,16.2-4.7c46.5-14.4,98.2-23.2,143.1,8.1"/>
	<path class="st0" d="M30.2,316.8C46.6,303.6,64.1,291,83,280.3c37.4-21,77.5-33.2,118.4-40c50.6-8.4,103.2-6.7,152.1,1.7
		c13.6,2.4,26.4,4.8,38.7,7.4c71,15,119.9,33.6,195,11.5c5.2-1.5,10.5-3.2,16-5.2c45.8-16.1,98.8-29.2,142,4.7"/>
	<path class="st0" d="M30.5,318.9c86.3-70.5,215.5-106.2,322.9-85.3c99.5,19.4,153.8,62.3,250.3,24.1c45.2-17.9,99.4-35.3,140.8,1.2
		"/>
</g>
<rect x="152.6" y="154.9" class="st1" width="553.3" height="161.4"/>
<text transform="matrix(1 0 0 1 240.575 285.9756)" class="st2 st3 st4">Instruments, Natural Sound</text>
<g>
	
		<rect x="646.2" y="127.3" transform="matrix(0.9908 -0.1356 0.1356 0.9908 -18.797 90.5316)" class="st0" width="17.4" height="111.8"/>
	<path class="st0" d="M681.2,374.9c28.2-3.9,47.9-29.8,44-58c-0.6-4.2-1.7-8.3-3.2-12.1l0,0c-4.6-14-16.5-18.9-18.6-28.6
		c-1-4.7,2.4-9.3,1.3-17.3c-2.9-21.4-22.2-33.2-43.6-30.2c-21.4,2.9-36.8,19.4-33.9,40.8c1.1,8,5.6,11.6,5.9,16.3
		c0.7,10-9.6,17.8-10.2,32.6l0,0c-0.4,4.1-0.4,8.3,0.2,12.5C627,359.1,653,378.8,681.2,374.9z"/>
	<ellipse transform="matrix(0.9908 -0.1356 0.1356 0.9908 -33.1256 93.4974)" class="st0" cx="669.5" cy="289.8" rx="20" ry="20"/>
	<ellipse transform="matrix(0.9908 -0.1356 0.1356 0.9908 -33.1256 93.4974)" class="st5" cx="669.5" cy="289.8" rx="17" ry="17"/>
	
		<rect x="655.5" y="331.4" transform="matrix(0.9908 -0.1356 0.1356 0.9908 -39.0221 94.7179)" class="st0" width="40" height="4.5"/>
	<g>
		
			<rect x="629.4" y="115.7" transform="matrix(0.9908 -0.1356 0.1356 0.9908 -10.031 86.8545)" class="st5" width="5.9" height="2.6"/>
		
			<ellipse transform="matrix(0.9908 -0.1356 0.1356 0.9908 -10.1424 86.316)" class="st5" cx="628.3" cy="117.6" rx="2.4" ry="2.4"/>
	</g>
	<g>
		
			<rect x="631.9" y="124.2" transform="matrix(0.9908 -0.1356 0.1356 0.9908 -11.1526 87.2692)" class="st5" width="5.9" height="2.6"/>
		<ellipse transform="matrix(0.9908 -0.1356 0.1356 0.9908 -11.2641 86.7307)" class="st5" cx="630.8" cy="126" rx="2.4" ry="2.4"/>
	</g>
	<g>
		
			<rect x="634.9" y="133.6" transform="matrix(0.9908 -0.1356 0.1356 0.9908 -12.4097 87.7751)" class="st5" width="5.9" height="2.6"/>
		
			<ellipse transform="matrix(0.9908 -0.1356 0.1356 0.9908 -12.5211 87.2366)" class="st5" cx="633.9" cy="135.5" rx="2.4" ry="2.4"/>
	</g>
	<g>
		
			<rect x="656" y="112.1" transform="matrix(0.9908 -0.1356 0.1356 0.9908 -9.2916 90.4266)" class="st5" width="5.9" height="2.6"/>
		
			<ellipse transform="matrix(0.9908 -0.1356 0.1356 0.9908 -9.1801 90.9652)" class="st5" cx="662.9" cy="112.8" rx="2.4" ry="2.4"/>
	</g>
	<g>
		
			<rect x="655.8" y="120.9" transform="matrix(0.9908 -0.1356 0.1356 0.9908 -10.4857 90.4913)" class="st5" width="5.9" height="2.6"/>
		
			<ellipse transform="matrix(0.9908 -0.1356 0.1356 0.9908 -10.3742 91.0298)" class="st5" cx="662.8" cy="121.6" rx="2.4" ry="2.4"/>
	</g>
	<g>
		
			<rect x="655.4" y="130.8" transform="matrix(0.9908 -0.1356 0.1356 0.9908 -11.8403 90.526)" class="st5" width="5.9" height="2.6"/>
		
			<ellipse transform="matrix(0.9908 -0.1356 0.1356 0.9908 -11.7288 91.0645)" class="st5" cx="662.4" cy="131.6" rx="2.4" ry="2.4"/>
	</g>
	<polygon class="st5" points="649.2,141.5 657.8,140.3 657.3,107.4 644.8,109.1 632.2,110.9 640.6,142.6 	"/>
</g>
<g>
	<path class="st0" d="M536,198.9c-8.5-5.7-42.5-19.1-61.9-13.6L357.5,218l-4.7-16.9l116.7-32.7c19.3-5.4,41.5-34.5,45.8-43.8
		L536,198.9z"/>
	<path class="st5" d="M531.7,199.8c0.7,2.4,3.1,3.7,5.5,3.1c2.4-0.7,3.7-3.1,3.1-5.5l-20.7-73.7c-0.7-2.4-3.1-3.7-5.5-3.1
		c-2.4,0.7-3.7,3.1-3.1,5.5L531.7,199.8z"/>
	<path class="st5" d="M354.2,218.7c0.4,1.3,1.7,2.1,3.1,1.7c1.3-0.4,2.1-1.7,1.7-3.1l-4.6-16.6c-0.4-1.3-1.7-2.1-3.1-1.7
		c-1.3,0.4-2.1,1.7-1.7,3.1L354.2,218.7z"/>
	<path class="st5" d="M474.8,208.6l-66.4,18.6c-6.6,1.8-13.4-2-15.2-8.5c-1.8-6.6,2-13.4,8.6-15.2l66.4-18.6
		c6.6-1.8,13.4,2,15.2,8.5C485.2,200,481.3,206.8,474.8,208.6z M403.6,209.9c-3,0.8-4.8,4-3.9,7c0.8,3,4,4.8,7,3.9l66.4-18.6
		c3-0.8,4.8-4,3.9-7c-0.8-3-4-4.8-7-3.9L403.6,209.9z"/>
	<g>
		
			<rect x="401.3" y="178.7" transform="matrix(0.9629 -0.2699 0.2699 0.9629 -34.3257 115.7475)" class="st5" width="4.7" height="8"/>
		
			<rect x="395.1" y="174.3" transform="matrix(0.9629 -0.2699 0.2699 0.9629 -32.7519 115.0635)" class="st5" width="13.8" height="4.6"/>
	</g>
	<g>
		<rect x="420" y="173.4" transform="matrix(0.9629 -0.2699 0.2699 0.9629 -32.2189 120.595)" class="st5" width="4.7" height="8"/>
		
			<rect x="413.7" y="169.1" transform="matrix(0.9629 -0.2699 0.2699 0.9629 -30.6451 119.911)" class="st5" width="13.8" height="4.6"/>
	</g>
	<g>
		
			<rect x="438.7" y="168.2" transform="matrix(0.9629 -0.2699 0.2699 0.9629 -30.1121 125.4423)" class="st5" width="4.7" height="8"/>
		
			<rect x="432.4" y="163.9" transform="matrix(0.9629 -0.2699 0.2699 0.9629 -28.5383 124.7583)" class="st5" width="13.8" height="4.6"/>
	</g>
</g>
<g>
	<path class="st6" d="M277.4,77.6c-1.4,0-2.9,1-3.6,2.2l0.7,1.7c1.7,0.5,3.8-0.8,4.1-2.5L277.4,77.6z"/>
	<polygon class="st6" points="279.2,82.8 277.1,79.9 276,80.5 277.6,83.8 	"/>
	<path class="st6" d="M271.1,81.5c-1.4,0-2.9,1-3.6,2.2l0.7,1.7c1.7,0.5,3.8-0.8,4.1-2.5L271.1,81.5z"/>
	<polygon class="st7" points="272.9,86.6 270.7,83.8 269.7,84.4 271.3,87.7 	"/>
	<g>
		<path class="st7" d="M291.5,81.1l-11.9-0.2l-36.7,22.5c2.8,3.6,4.2,7.2,3.9,10.6l12.1,4C268,105.1,279.3,93,291.5,81.1z"/>
		<path class="st7" d="M221,364.7c0,0-3.1-22.3-28-27.5c-39.9-8.3-98.6,31.6-98.6,31.6s2-8.1,2.4-9.8c0.4-1.8,1.4-3,2.9-4.4
			l69.4-63.8c4.3-3.9,4.7-8.4,5.3-12l7.9-46c0.4-2.5,0.7-3.8,2.2-6.8c1.5-2.9,7.2-6.3,7.2-6.3s-1.1,19.6,5.8,21.9
			c4.5,1.5,7-6.8,7-6.8s2.8,25.7,17.7,30.8c14.9,5.1,44.5-25.5,44.5-25.5l-0.2,9.4c0,2.4-1.2,4-2.4,5.5
			c-1.3,1.6-34.9,42.4-38.3,52.5c-3.3,10.1,0.9,43.6,1.2,46c0.3,2.4-0.6,3.8-1.3,4.8L221,364.7z"/>
		<path class="st7" d="M196.6,258.4"/>
		<path class="st7" d="M204.3,236"/>
		<polyline class="st6" points="213.6,260.6 259.9,115.9 247,111.6 204.3,236 		"/>
		<path class="st7" d="M213.6,260.6"/>
		<path class="st6" d="M264.8,85.4c-1.4,0-2.9,1-3.6,2.2l0.7,1.7c1.7,0.5,3.8-0.8,4.1-2.5L264.8,85.4z"/>
		<polygon class="st6" points="266.6,90.5 264.4,87.7 263.4,88.3 264.9,91.5 		"/>
		<path class="st6" d="M258.4,89.2c-1.4,0-2.9,1-3.6,2.2l0.7,1.7c1.7,0.5,3.8-0.8,4.1-2.5L258.4,89.2z"/>
		<polygon class="st7" points="260.3,94.4 258.1,91.5 257,92.1 258.6,95.4 		"/>
		<path class="st6" d="M252.1,93.1c-1.4,0-2.9,1-3.6,2.2l0.7,1.7c1.7,0.5,3.8-0.8,4.1-2.5L252.1,93.1z"/>
		<polygon class="st7" points="253.9,98.2 251.8,95.4 250.7,96 252.3,99.3 		"/>
		<path class="st6" d="M245.8,97c-1.4,0-2.9,1-3.6,2.2l0.7,1.7c1.7,0.5,3.8-0.8,4.1-2.5L245.8,97z"/>
		<polygon class="st7" points="247.6,102.1 245.4,99.3 244.4,99.9 246,103.1 		"/>
		<path class="st6" d="M195.5,278.7l-0.6,11.7l-21.4,15.2c0,0,21-9.4,27.2-1.4s10.8,12.5,10.8,12.5s-7.2-18.7-1-24.1
			c6.2-5.4,15.9-14.1,15.9-14.1l-17.7,6.1L195.5,278.7z"/>
	</g>
</g>
</svg>
