<?xml version="1.0" encoding="utf-8"?>
<!-- Generator: Adobe Illustrator 20.0.0, SVG Export Plug-In . SVG Version: 6.00 Build 0)  -->
<svg version="1.1" id="Layer_1" xmlns="http://www.w3.org/2000/svg" xmlns:xlink="http://www.w3.org/1999/xlink" x="0px" y="0px"
	 viewBox="0 0 841.9 595.3" style="enable-background:new 0 0 841.9 595.3;" xml:space="preserve">
<style type="text/css">
	.st0{fill:#FFFFFF;}
</style>
<g>
	<g>
		<path class="st0" d="M327.6,254.3c2,1.6,3.9,3.1,5.9,4.7c1.9,1.6,3.9,3.2,5.8,4.8c0.5,0.4,0.9,0.9,1.3,1.3l1.3,1.3l2.6,2.6
			l5.3,5.3l21.2,21.2h-2.1l21-21l5.3-5.3l2.6-2.6l1.3-1.3c0.4-0.5,0.8-0.9,1.3-1.3l5.7-4.8c1.9-1.6,3.9-3.1,5.8-4.7
			c-1.5,2-3.1,3.9-4.7,5.8l-4.8,5.7c-0.4,0.5-0.9,0.9-1.3,1.3l-1.3,1.3l-2.6,2.6l-5.3,5.3l-21,21l-1.1,1.1l-1.1-1.1l-21.2-21.2
			l-5.3-5.3l-2.6-2.6l-1.3-1.3c-0.5-0.4-0.9-0.8-1.3-1.3c-1.6-1.9-3.2-3.8-4.8-5.8C330.8,258.2,329.2,256.3,327.6,254.3z"/>
	</g>
	<g>
		<path class="st0" d="M327.6,286.4c2,1.6,3.9,3.1,5.9,4.7c1.9,1.6,3.9,3.2,5.8,4.8c0.5,0.4,0.9,0.9,1.3,1.3l1.3,1.3l2.6,2.6
			l5.3,5.3l21.2,21.2h-2.1l21-21l5.3-5.3l2.6-2.6l1.3-1.3c0.4-0.5,0.8-0.9,1.3-1.3l5.7-4.8c1.9-1.6,3.9-3.1,5.8-4.7
			c-1.5,2-3.1,3.9-4.7,5.8l-4.8,5.7c-0.4,0.5-0.9,0.9-1.3,1.3l-1.3,1.3l-2.6,2.6l-5.3,5.3l-21,21l-1.1,1.1l-1.1-1.1l-21.2-21.2
			l-5.3-5.3l-2.6-2.6l-1.3-1.3c-0.5-0.4-0.9-0.8-1.3-1.3c-1.6-1.9-3.2-3.8-4.8-5.8C330.8,290.4,329.2,288.4,327.6,286.4z"/>
	</g>
</g>
</svg>
